<svg xmlns="http://www.w3.org/2000/svg" xmlns:svg="http://www.w3.org/2000/svg" id="svg1" width="772.198" height="772.199" version="1.1" viewBox="0 0 204.311 204.311"><g id="layer1" transform="translate(-3.6155119,-4.7482654)"><g id="g46" transform="matrix(1.6302867,0,0,1.6302867,-1129.6262,-137.71768)" style="stroke:#64172b;stroke-opacity:1"><g id="g45" style="stroke:#64172b;stroke-opacity:1"><path style="fill:none;stroke:#64172b;stroke-width:3.1499;stroke-linecap:round;stroke-linejoin:round;stroke-miterlimit:10;stroke-opacity:1" id="path34" d="m 814.809,173.229 c 2.618,-6.796 4.056,-14.176 4.056,-21.895 0,-8.704 -1.827,-16.979 -5.114,-24.469"/><path style="fill:none;stroke:#64172b;stroke-width:3.1499;stroke-linecap:round;stroke-linejoin:round;stroke-miterlimit:10;stroke-opacity:1" id="path35" d="m 756.602,149.32 c 0.034,-0.001 0.068,-0.002 0.102,-0.003 0.01,-0.292 0.009,-0.587 0.022,-0.878 -0.049,-0.001 -0.098,-0.003 -0.146,-0.004 0.013,0.295 0.013,0.591 0.022,0.885 z"/><path style="fill:none;stroke:#64172b;stroke-width:3.1499;stroke-linecap:round;stroke-linejoin:round;stroke-miterlimit:10;stroke-opacity:1" id="path36" d="m 756.653,151.334 c 0,-0.676 0.029,-1.346 0.051,-2.017 -0.034,0.001 -0.068,0.002 -0.102,0.003 0.022,0.67 0.051,1.339 0.051,2.014 z"/><path style="fill:none;stroke:#64172b;stroke-width:3.1499;stroke-linecap:round;stroke-linejoin:round;stroke-miterlimit:10;stroke-opacity:1" id="path37" d="m 756.409,148.433 c -21.359,-0.507 -39.998,-11.982 -50.491,-29.023 -5.243,-8.516 -8.453,-18.415 -8.949,-29.027 10.874,0.228 21.046,3.293 29.805,8.499 11.22,6.669 20.119,16.831 25.194,28.989 0,0 -25.033,8.014 -39.733,-20.685"/><path style="fill:none;stroke:#64172b;stroke-width:3.1499;stroke-linecap:round;stroke-linejoin:round;stroke-miterlimit:10;stroke-opacity:1" id="path38" d="m 817.638,90.35 c -10.859,0 -21.047,2.851 -29.878,7.826 -17.772,10.011 -30.023,28.663 -31.033,50.264 0.385,0.007 0.767,0.029 1.155,0.029 21.975,0 41.228,-11.627 51.962,-29.06 5.244,-8.517 8.453,-18.418 8.949,-29.031 -0.386,-0.006 -0.768,-0.028 -1.155,-0.028 z"/><path style="fill:none;stroke:#64172b;stroke-width:3.1499;stroke-linecap:round;stroke-linejoin:round;stroke-miterlimit:10;stroke-opacity:1" id="path39" d="m 756.602,149.665 c 0.034,0.001 0.068,0.002 0.102,0.003 0.01,0.292 0.009,0.587 0.022,0.878 -0.049,0.001 -0.098,0.003 -0.146,0.004 0.013,-0.294 0.013,-0.591 0.022,-0.885 z"/><path style="fill:none;stroke:#64172b;stroke-width:3.1499;stroke-linecap:round;stroke-linejoin:round;stroke-miterlimit:10;stroke-opacity:1" id="path40" d="m 756.653,147.651 c 0,0.676 0.029,1.346 0.051,2.017 -0.034,-0.001 -0.068,-0.002 -0.102,-0.003 0.022,-0.67 0.051,-1.339 0.051,-2.014 z"/><path style="fill:none;stroke:#64172b;stroke-width:3.1499;stroke-linecap:round;stroke-linejoin:round;stroke-miterlimit:10;stroke-opacity:1" id="path41" d="m 705.919,179.576 c -5.243,8.516 -8.453,18.415 -8.949,29.027 10.874,-0.228 21.046,-3.293 29.805,-8.499 17.107,-10.167 28.818,-28.455 29.805,-49.555 -21.431,0.45 -40.141,11.94 -50.661,29.027 z"/><path style="fill:none;stroke:#64172b;stroke-width:3.1499;stroke-linecap:round;stroke-linejoin:round;stroke-miterlimit:10;stroke-opacity:1" id="path42" d="m 760.813,169.812 c 5.146,13.178 14.745,24.124 26.947,30.997 8.832,4.975 19.019,7.826 29.878,7.826 0.387,0 0.769,-0.022 1.155,-0.029 -0.496,-10.613 -3.706,-20.514 -8.949,-29.031 -10.734,-17.433 -29.987,-29.06 -51.962,-29.06 -0.131,0 -0.262,0.003 -0.393,0.006"/><path style="fill:none;stroke:#64172b;stroke-width:3.1499;stroke-linecap:round;stroke-linejoin:round;stroke-miterlimit:10;stroke-opacity:1" id="path43" d="m 700.75,173.229 c -2.618,-6.796 -4.057,-14.176 -4.057,-21.895 0,-8.704 1.827,-16.979 5.114,-24.469"/><path style="fill:none;stroke:#64172b;stroke-width:3.1499;stroke-linecap:round;stroke-linejoin:round;stroke-miterlimit:10;stroke-opacity:1" id="path44" d="m 734.598,93.018 c 6.795,-2.618 14.176,-4.056 21.895,-4.056 8.704,0 16.979,1.827 24.469,5.114"/><path style="fill:none;stroke:#64172b;stroke-width:3.1499;stroke-linecap:round;stroke-linejoin:round;stroke-miterlimit:10;stroke-opacity:1" id="path45" d="m 734.598,207.077 c 6.795,2.618 14.176,4.057 21.895,4.057 8.704,0 16.979,-1.827 24.469,-5.114"/></g></g></g></svg>