<svg xmlns="http://www.w3.org/2000/svg" xmlns:svg="http://www.w3.org/2000/svg" id="svg1" width="772.198" height="772.199" version="1.1" viewBox="0 0 204.311 204.311"><g id="layer1" transform="translate(-3.6155119,-4.7482654)"><g id="g76" transform="matrix(1.3874947,0,0,1.3874947,-1336.9518,-99.136925)" style="stroke:#64172b;stroke-opacity:1"><g id="g72" style="stroke:#64172b;stroke-opacity:1"><path style="fill:none;stroke:#64172b;stroke-width:2.8165;stroke-linecap:round;stroke-linejoin:round;stroke-miterlimit:10;stroke-opacity:1" id="path69" d="m 1091.062,163.349 c -88.086,-22.538 -51.375,-70.998 -51.375,-70.998 0,0 13.629,14.093 0.301,43.165"/><path style="fill:none;stroke:#64172b;stroke-width:2.8165;stroke-linecap:round;stroke-linejoin:round;stroke-miterlimit:10;stroke-opacity:1" id="path70" d="m 1034.892,144.146 c -8.41,11.144 -23.841,17.716 -45.844,19.166"/><path style="fill:none;stroke:#64172b;stroke-width:2.8165;stroke-linecap:round;stroke-linejoin:round;stroke-miterlimit:10;stroke-opacity:1" id="path71" d="m 989.049,141.513 c 88.086,22.538 51.375,70.999 51.375,70.999 0,0 -13.629,-14.093 -0.301,-43.165"/><path style="fill:none;stroke:#64172b;stroke-width:2.8165;stroke-linecap:round;stroke-linejoin:round;stroke-miterlimit:10;stroke-opacity:1" id="path72" d="m 1045.949,159.781 c 8.558,-10.577 23.733,-16.823 45.113,-18.231"/></g><path style="fill:none;stroke:#64172b;stroke-width:2.8165;stroke-linecap:round;stroke-linejoin:round;stroke-miterlimit:10;stroke-opacity:1" id="path73" d="m 978.321,185.337 c -5.76,-10.25 -9.045,-22.077 -9.045,-34.672 0,-11.137 2.568,-21.674 7.145,-31.051"/><path style="fill:none;stroke:#64172b;stroke-width:2.8165;stroke-linecap:round;stroke-linejoin:round;stroke-miterlimit:10;stroke-opacity:1" id="path74" d="m 1103.887,119.613 c 4.577,9.377 7.146,19.915 7.146,31.052 0,12.594 -3.285,24.422 -9.045,34.672"/><path style="fill:none;stroke:#64172b;stroke-width:2.8165;stroke-linecap:round;stroke-linejoin:round;stroke-miterlimit:10;stroke-opacity:1" id="path75" d="m 1006.525,88.831 c 10.25,-5.76 22.077,-9.045 34.672,-9.045 11.137,0 21.674,2.569 31.051,7.145"/><path style="fill:none;stroke:#64172b;stroke-width:2.8165;stroke-linecap:round;stroke-linejoin:round;stroke-miterlimit:10;stroke-opacity:1" id="path76" d="m 1072.249,214.397 c -9.377,4.577 -19.915,7.146 -31.052,7.146 -12.594,0 -24.422,-3.285 -34.672,-9.045"/></g></g></svg>