<?xml version="1.0" encoding="UTF-8" standalone="no"?>
<!-- Created with Inkscape (http://www.inkscape.org/) -->

<svg
   width="204.31062mm"
   height="204.31102mm"
   viewBox="0 0 204.31062 204.31102"
   version="1.1"
   id="svg1"
   inkscape:export-filename="2.svg"
   inkscape:export-xdpi="96"
   inkscape:export-ydpi="96"
   sodipodi:docname="4.svg"
   inkscape:version="1.3 (0e150ed, 2023-07-21)"
   xmlns:inkscape="http://www.inkscape.org/namespaces/inkscape"
   xmlns:sodipodi="http://sodipodi.sourceforge.net/DTD/sodipodi-0.dtd"
   xmlns="http://www.w3.org/2000/svg"
   xmlns:svg="http://www.w3.org/2000/svg">
  <sodipodi:namedview
     id="namedview1"
     pagecolor="#ffffff"
     bordercolor="#000000"
     borderopacity="0.25"
     inkscape:showpageshadow="2"
     inkscape:pageopacity="0.0"
     inkscape:pagecheckerboard="0"
     inkscape:deskcolor="#d1d1d1"
     inkscape:document-units="mm"
     inkscape:zoom="0.30562065"
     inkscape:cx="386.09957"
     inkscape:cy="386.09957"
     inkscape:window-width="1472"
     inkscape:window-height="449"
     inkscape:window-x="0"
     inkscape:window-y="25"
     inkscape:window-maximized="0"
     inkscape:current-layer="layer1" />
  <defs
     id="defs1" />
  <g
     inkscape:label="Calque 1"
     inkscape:groupmode="layer"
     id="layer1"
     transform="translate(-3.6155119,-4.7482654)">
    <g
       id="g76"
       transform="matrix(1.3874947,0,0,1.3874947,-1336.9518,-99.136925)"
       style="stroke:#64172b;stroke-opacity:1">
      <g
         id="g72"
         style="stroke:#64172b;stroke-opacity:1">
        <path
           style="fill:none;stroke:#64172b;stroke-width:2.8165;stroke-linecap:round;stroke-linejoin:round;stroke-miterlimit:10;stroke-opacity:1"
           d="m 1091.062,163.349 c -88.086,-22.538 -51.375,-70.998 -51.375,-70.998 0,0 13.629,14.093 0.301,43.165"
           id="path69" />
        <path
           style="fill:none;stroke:#64172b;stroke-width:2.8165;stroke-linecap:round;stroke-linejoin:round;stroke-miterlimit:10;stroke-opacity:1"
           d="m 1034.892,144.146 c -8.41,11.144 -23.841,17.716 -45.844,19.166"
           id="path70" />
        <path
           style="fill:none;stroke:#64172b;stroke-width:2.8165;stroke-linecap:round;stroke-linejoin:round;stroke-miterlimit:10;stroke-opacity:1"
           d="m 989.049,141.513 c 88.086,22.538 51.375,70.999 51.375,70.999 0,0 -13.629,-14.093 -0.301,-43.165"
           id="path71" />
        <path
           style="fill:none;stroke:#64172b;stroke-width:2.8165;stroke-linecap:round;stroke-linejoin:round;stroke-miterlimit:10;stroke-opacity:1"
           d="m 1045.949,159.781 c 8.558,-10.577 23.733,-16.823 45.113,-18.231"
           id="path72" />
      </g>
      <path
         style="fill:none;stroke:#64172b;stroke-width:2.8165;stroke-linecap:round;stroke-linejoin:round;stroke-miterlimit:10;stroke-opacity:1"
         d="m 978.321,185.337 c -5.76,-10.25 -9.045,-22.077 -9.045,-34.672 0,-11.137 2.568,-21.674 7.145,-31.051"
         id="path73" />
      <path
         style="fill:none;stroke:#64172b;stroke-width:2.8165;stroke-linecap:round;stroke-linejoin:round;stroke-miterlimit:10;stroke-opacity:1"
         d="m 1103.887,119.613 c 4.577,9.377 7.146,19.915 7.146,31.052 0,12.594 -3.285,24.422 -9.045,34.672"
         id="path74" />
      <path
         style="fill:none;stroke:#64172b;stroke-width:2.8165;stroke-linecap:round;stroke-linejoin:round;stroke-miterlimit:10;stroke-opacity:1"
         d="m 1006.525,88.831 c 10.25,-5.76 22.077,-9.045 34.672,-9.045 11.137,0 21.674,2.569 31.051,7.145"
         id="path75" />
      <path
         style="fill:none;stroke:#64172b;stroke-width:2.8165;stroke-linecap:round;stroke-linejoin:round;stroke-miterlimit:10;stroke-opacity:1"
         d="m 1072.249,214.397 c -9.377,4.577 -19.915,7.146 -31.052,7.146 -12.594,0 -24.422,-3.285 -34.672,-9.045"
         id="path76" />
    </g>
  </g>
</svg>
